# Blender v2.79 (sub 0) OBJ File: 'fountain.blend'
# www.blender.org
v -1.000000 0.000000 1.000000
v 1.000000 0.000000 1.000000
v -1.000000 0.000000 -1.000000
v 1.000000 0.000000 -1.000000
vn 0.0000 1.0000 0.0000
s off
f 1//1 2//1 4//1 3//1
v 0.000000 -0.100000 0.353553
v 0.000000 0.100000 0.353553
v -0.353553 -0.100000 0.000000
v -0.353553 0.100000 0.000000
v 0.353553 -0.100000 0.000000
v 0.353553 0.100000 0.000000
v 0.000000 -0.100000 -0.353553
v 0.000000 0.100000 -0.353553
vn -0.7071 0.0000 0.7071
vn -0.7071 0.0000 -0.7071
vn 0.7071 0.0000 -0.7071
vn 0.7071 0.0000 0.7071
vn 0.0000 -1.0000 0.0000
vn 0.0000 1.0000 0.0000
s off
f 5//2 6//2 8//2 7//2
f 7//3 8//3 12//3 11//3
f 11//4 12//4 10//4 9//4
f 9//5 10//5 6//5 5//5
f 7//6 11//6 9//6 5//6
f 12//7 8//7 6//7 10//7
v -0.250000 -0.100000 0.250000
v -0.250000 0.100000 0.250000
v -0.250000 -0.100000 -0.250000
v -0.250000 0.100000 -0.250000
v 0.250000 -0.100000 0.250000
v 0.250000 0.100000 0.250000
v 0.250000 -0.100000 -0.250000
v 0.250000 0.100000 -0.250000
vn -1.0000 0.0000 0.0000
vn 0.0000 0.0000 -1.0000
vn 1.0000 0.0000 0.0000
vn 0.0000 0.0000 1.0000
vn 0.0000 -1.0000 0.0000
vn 0.0000 1.0000 0.0000
s off
f 13//8 14//8 16//8 15//8
f 15//9 16//9 20//9 19//9
f 19//10 20//10 18//10 17//10
f 17//11 18//11 14//11 13//11
f 15//12 19//12 17//12 13//12
f 20//13 16//13 14//13 18//13
v 0.000000 0.003131 -1.000000
v 0.000000 0.046869 -1.000000
v 0.195090 0.046869 -0.980785
v 0.195090 0.003131 -0.980785
v 0.980785 0.003131 -0.195090
v 1.000000 0.003131 -0.000000
v 0.980785 0.003131 0.195090
v 0.923880 0.003131 0.382683
v 0.831470 0.003131 0.555570
v 0.707107 0.002625 0.707107
v 0.555570 0.003126 0.831470
v 0.382683 0.003131 0.923880
v 0.195090 0.003131 0.980785
v -0.000000 0.003131 1.000000
v -0.195091 0.003131 0.980785
v -0.382684 0.003131 0.923879
v -0.555571 0.003126 0.831469
v -0.707107 0.002625 0.707106
v -0.831470 0.003131 0.555570
v -0.923880 0.003131 0.382683
v -0.980785 0.003131 0.195089
v -1.000000 0.003131 -0.000001
v -0.950000 0.003131 -0.000001
v -0.931746 0.003131 0.185335
v -0.877686 0.003131 0.363549
v -0.789896 0.003131 0.527791
v -0.671752 0.002953 0.671751
v -0.527792 0.003131 0.789896
v -0.363550 0.003131 0.877685
v -0.185336 0.003131 0.931746
v -0.000000 0.003131 0.950000
v 0.185336 0.003131 0.931746
v 0.363549 0.003131 0.877686
v 0.527792 0.003131 0.789896
v 0.671751 0.002953 0.671751
v 0.789896 0.003131 0.527792
v 0.877686 0.003131 0.363549
v 0.931746 0.003131 0.185336
v 0.950000 0.003131 -0.000000
v 0.382683 0.003131 -0.923880
v 0.555570 0.003131 -0.831470
v 0.707107 0.003131 -0.707107
v 0.831470 0.003131 -0.555570
v 0.923880 0.003131 -0.382683
v 0.931746 0.003131 -0.185336
v 0.877686 0.003131 -0.363549
v 0.789896 0.003131 -0.527792
v 0.671751 0.003131 -0.671751
v 0.527792 0.003131 -0.789896
v 0.363549 0.003131 -0.877686
v 0.185336 0.003131 -0.931746
v 0.000000 0.003131 -0.950000
v -0.185334 0.003131 -0.931746
v -0.363548 0.003131 -0.877686
v -0.527791 0.003131 -0.789897
v -0.671751 0.003131 -0.671752
v -0.789895 0.003131 -0.527793
v -0.877685 0.003131 -0.363550
v -0.931746 0.003131 -0.185337
v -0.980785 0.003131 -0.195091
v -0.923879 0.003131 -0.382684
v -0.831469 0.003131 -0.555571
v -0.707106 0.003131 -0.707108
v -0.555569 0.003131 -0.831470
v -0.382682 0.003131 -0.923880
v -0.195089 0.003131 -0.980786
v -0.195089 0.046869 -0.980786
v -0.382682 0.046869 -0.923880
v -0.555569 0.046869 -0.831470
v -0.707106 0.046869 -0.707108
v -0.831469 0.046869 -0.555571
v -0.923879 0.046869 -0.382684
v -0.980785 0.046869 -0.195091
v -1.000000 0.046869 -0.000001
v -0.980785 0.046869 0.195089
v -0.923880 0.046869 0.382683
v -0.831470 0.046869 0.555570
v -0.707107 0.051182 0.707106
v -0.555571 0.049110 0.831469
v -0.384324 0.052625 0.927839
v -0.195091 0.046869 0.980785
v -0.000000 0.046869 1.000000
v -0.000000 0.046869 0.950000
v -0.185336 0.046869 0.931746
v -0.364685 0.051642 0.880426
v -0.527792 0.049043 0.789896
v -0.671752 0.050947 0.671751
v -0.789896 0.046869 0.527791
v -0.877686 0.046869 0.363549
v -0.931746 0.046869 0.185335
v -0.950000 0.046869 -0.000001
v -0.931746 0.046869 -0.185337
v -0.877685 0.046869 -0.363550
v -0.789895 0.046869 -0.527793
v -0.671751 0.046869 -0.671752
v -0.527791 0.046869 -0.789897
v -0.363548 0.046869 -0.877686
v -0.185334 0.046869 -0.931746
v 0.000000 0.046869 -0.950000
v 0.185336 0.046869 -0.931746
v 0.363549 0.046869 -0.877686
v 0.527792 0.046869 -0.789896
v 0.671751 0.046869 -0.671751
v 0.789896 0.046869 -0.527792
v 0.877686 0.046869 -0.363549
v 0.931746 0.046869 -0.185336
v 0.950000 0.046869 -0.000000
v 0.931746 0.046869 0.185336
v 0.877686 0.046869 0.363549
v 0.789896 0.046869 0.527792
v 0.671751 0.050947 0.671751
v 0.527792 0.049043 0.789896
v 0.364684 0.051642 0.880427
v 0.185336 0.046869 0.931746
v 0.195090 0.046869 0.980785
v 0.384324 0.052625 0.927840
v 0.555570 0.049110 0.831470
v 0.707107 0.051182 0.707107
v 0.831470 0.046869 0.555570
v 0.923880 0.046869 0.382683
v 0.980785 0.046869 0.195090
v 1.000000 0.046869 -0.000000
v 0.980785 0.046869 -0.195090
v 0.923880 0.046869 -0.382683
v 0.831470 0.046869 -0.555570
v 0.707107 0.046869 -0.707107
v 0.555570 0.046869 -0.831470
v 0.382683 0.046869 -0.923880
vn 0.0000 -0.6857 -0.7279
vn 0.0007 0.6850 -0.7285
vn 0.1412 0.6850 -0.7147
vn 0.1420 -0.6857 -0.7139
vn 0.7139 -0.6857 -0.1420
vn 0.7279 -0.6857 -0.0004
vn 0.7139 -0.6857 0.1416
vn 0.6725 -0.6858 0.2781
vn 0.6055 -0.6855 0.4042
vn 0.5144 -0.6864 0.5140
vn 0.4033 -0.6941 0.5963
vn 0.2729 -0.7017 0.6581
vn 0.1368 -0.6946 0.7063
vn 0.0000 -0.6859 0.7277
vn -0.1368 -0.6946 0.7063
vn -0.2729 -0.7017 0.6581
vn -0.4033 -0.6941 0.5963
vn -0.5144 -0.6864 0.5140
vn -0.6055 -0.6855 0.4042
vn -0.6725 -0.6858 0.2781
vn -0.7139 -0.6857 0.1416
vn -0.7279 -0.6857 -0.0002
vn 0.6836 -0.7298 -0.0002
vn 0.7139 -0.6856 -0.1424
vn 0.6724 -0.6856 -0.2789
vn 0.6052 -0.6854 -0.4048
vn 0.5144 -0.6858 -0.5148
vn 0.4099 -0.6792 -0.6088
vn 0.2833 -0.6720 -0.6842
vn 0.1404 -0.6792 -0.7204
vn 0.0000 -0.6855 -0.7281
vn -0.1404 -0.6792 -0.7204
vn -0.2833 -0.6720 -0.6842
vn -0.4099 -0.6792 -0.6088
vn -0.5144 -0.6858 -0.5148
vn -0.6052 -0.6854 -0.4048
vn -0.6724 -0.6856 -0.2789
vn -0.7139 -0.6856 -0.1424
vn -0.6836 -0.7298 -0.0004
vn 0.2785 -0.6857 -0.6725
vn 0.4044 -0.6857 -0.6052
vn 0.5147 -0.6857 -0.5147
vn 0.6052 -0.6857 -0.4044
vn 0.6725 -0.6857 -0.2785
vn -0.7139 -0.6857 0.1420
vn -0.6725 -0.6857 0.2785
vn -0.6052 -0.6857 0.4044
vn -0.5147 -0.6857 0.5147
vn -0.4044 -0.6857 0.6052
vn -0.2785 -0.6857 0.6725
vn -0.1420 -0.6857 0.7139
vn 0.0000 -0.6857 0.7279
vn 0.1420 -0.6857 0.7139
vn 0.2785 -0.6857 0.6725
vn 0.4044 -0.6857 0.6052
vn 0.5147 -0.6857 0.5147
vn 0.6052 -0.6857 0.4044
vn 0.6725 -0.6857 0.2785
vn 0.7139 -0.6857 0.1420
vn -0.7139 -0.6857 -0.1420
vn -0.6725 -0.6857 -0.2785
vn -0.6052 -0.6857 -0.4044
vn -0.5147 -0.6857 -0.5147
vn -0.4044 -0.6857 -0.6052
vn -0.2785 -0.6857 -0.6725
vn -0.1420 -0.6857 -0.7139
vn -0.1411 0.6851 -0.7146
vn -0.2776 0.6852 -0.6733
vn -0.4034 0.6853 -0.6063
vn -0.5138 0.6855 -0.5159
vn -0.6044 0.6856 -0.4057
vn -0.6718 0.6858 -0.2799
vn -0.7134 0.6859 -0.1434
vn -0.7275 0.6861 -0.0013
vn -0.7136 0.6862 0.1408
vn -0.6723 0.6863 0.2774
vn -0.6069 0.6837 0.4053
vn -0.5120 0.6899 0.5118
vn -0.4122 0.6767 0.6100
vn -0.2839 0.6712 0.6847
vn -0.1401 0.6763 0.7231
vn 0.0000 0.6864 0.7272
vn 0.0000 0.7291 -0.6844
vn 0.1395 0.6899 -0.7103
vn 0.2741 0.6991 -0.6603
vn 0.4043 0.6898 -0.6005
vn 0.5124 0.6883 -0.5134
vn 0.6072 0.6823 -0.4071
vn 0.6726 0.6851 -0.2796
vn 0.7141 0.6852 -0.1432
vn 0.7282 0.6853 -0.0013
vn 0.7144 0.6854 0.1406
vn 0.6731 0.6856 0.2772
vn 0.6060 0.6858 0.4031
vn 0.5156 0.6859 0.5135
vn 0.4053 0.6860 0.6042
vn 0.2795 0.6861 0.6716
vn 0.1429 0.6863 0.7132
vn 0.0007 0.7306 0.6828
vn -0.1429 0.6863 0.7131
vn -0.2795 0.6862 0.6715
vn -0.4054 0.6861 0.6041
vn -0.5156 0.6859 0.5134
vn -0.6061 0.6858 0.4030
vn -0.6732 0.6856 0.2770
vn -0.7144 0.6854 0.1405
vn -0.7283 0.6853 -0.0014
vn -0.7141 0.6851 -0.1433
vn -0.6726 0.6850 -0.2797
vn -0.6072 0.6823 -0.4072
vn -0.5124 0.6883 -0.5134
vn -0.4044 0.6898 -0.6005
vn -0.2741 0.6991 -0.6604
vn -0.1396 0.6898 -0.7103
vn 0.1401 0.6764 0.7231
vn 0.2838 0.6713 0.6847
vn 0.4122 0.6768 0.6099
vn 0.5120 0.6899 0.5117
vn 0.6069 0.6837 0.4052
vn 0.6723 0.6863 0.2774
vn 0.7136 0.6862 0.1407
vn 0.7275 0.6861 -0.0014
vn 0.7133 0.6859 -0.1435
vn 0.6717 0.6858 -0.2800
vn 0.6044 0.6856 -0.4058
vn 0.5137 0.6854 -0.5159
vn 0.4034 0.6853 -0.6063
vn 0.2775 0.6852 -0.6734
s 1
f 21//14 22//15 23//16 24//17
f 25//18 26//19 27//20 28//21 29//22 30//23 31//24 32//25 33//26 34//27 35//28 36//29 37//30 38//31 39//32 40//33 41//34 42//35 43//36 44//37 45//38 46//39 47//40 48//41 49//42 50//43 51//44 52//45 53//46 54//47 55//48 56//49 57//50 58//51 59//52
f 21//14 24//17 60//53 61//54 62//55 63//56 64//57 25//18 59//52 65//58 66//59 67//60 68//61 69//62 70//63 71//64 72//65 73//66 74//67 75//68 76//69 77//70 78//71 79//72 43//36 42//35 80//73 81//74 82//75 83//76 84//77 85//78 86//79
f 86//79 87//80 22//15 21//14
f 22//15 87//80 88//81 89//82 90//83 91//84 92//85 93//86 94//87 95//88 96//89 97//90 98//91 99//92 100//93 101//94 102//95 103//96 104//97 105//98 106//99 107//100 108//101 109//102 110//103 111//104 112//105 113//106 114//107 115//108 116//109 117//110 118//111 119//112 23//16
f 23//16 119//112 120//113 121//114 122//115 123//116 124//117 125//118 126//119 127//120 128//121 129//122 130//123 131//124 132//125 133//126 134//127 103//96 102//95 135//128 136//129 137//130 138//131 139//132 140//133 141//134 142//135 143//136 144//137 145//138 146//139 147//140 148//141
f 24//17 23//16 148//141 60//53
f 60//53 148//141 147//140 61//54
f 61//54 147//140 146//139 62//55
f 62//55 146//139 145//138 63//56
f 63//56 145//138 144//137 64//57
f 64//57 144//137 143//136 25//18
f 25//18 143//136 142//135 26//19
f 26//19 142//135 141//134 27//20
f 27//20 141//134 140//133 28//21
f 28//21 140//133 139//132 29//22
f 29//22 139//132 138//131 30//23
f 30//23 138//131 137//130 31//24
f 31//24 137//130 136//129 32//25
f 32//25 136//129 135//128 33//26
f 33//26 135//128 102//95 34//27
f 34//27 102//95 101//94 35//28
f 35//28 101//94 100//93 36//29
f 36//29 100//93 99//92 37//30
f 37//30 99//92 98//91 38//31
f 38//31 98//91 97//90 39//32
f 39//32 97//90 96//89 40//33
f 40//33 96//89 95//88 41//34
f 41//34 95//88 94//87 42//35
f 42//35 94//87 93//86 80//73
f 80//73 93//86 92//85 81//74
f 81//74 92//85 91//84 82//75
f 82//75 91//84 90//83 83//76
f 83//76 90//83 89//82 84//77
f 84//77 89//82 88//81 85//78
f 85//78 88//81 87//80 86//79
f 72//65 71//64 120//113 119//112
f 73//66 72//65 119//112 118//111
f 71//64 70//63 121//114 120//113
f 74//67 73//66 118//111 117//110
f 70//63 69//62 122//115 121//114
f 75//68 74//67 117//110 116//109
f 69//62 68//61 123//116 122//115
f 76//69 75//68 116//109 115//108
f 68//61 67//60 124//117 123//116
f 77//70 76//69 115//108 114//107
f 67//60 66//59 125//118 124//117
f 78//71 77//70 114//107 113//106
f 66//59 65//58 126//119 125//118
f 79//72 78//71 113//106 112//105
f 65//58 59//52 127//120 126//119
f 43//36 79//72 112//105 111//104
f 59//52 58//51 128//121 127//120
f 44//37 43//36 111//104 110//103
f 58//51 57//50 129//122 128//121
f 45//38 44//37 110//103 109//102
f 57//50 56//49 130//123 129//122
f 46//39 45//38 109//102 108//101
f 56//49 55//48 131//124 130//123
f 47//40 46//39 108//101 107//100
f 55//48 54//47 132//125 131//124
f 48//41 47//40 107//100 106//99
f 54//47 53//46 133//126 132//125
f 49//42 48//41 106//99 105//98
f 53//46 52//45 134//127 133//126
f 50//43 49//42 105//98 104//97
f 52//45 51//44 103//96 134//127
f 51//44 50//43 104//97 103//96
